<?xml version="1.0" standalone="no"?>
<!DOCTYPE svg PUBLIC "-//W3C//DTD SVG 20010904//EN"
 "http://www.w3.org/TR/2001/REC-SVG-20010904/DTD/svg10.dtd">
<svg version="1.0" xmlns="http://www.w3.org/2000/svg"
 width="992.000000pt" height="179.000000pt" viewBox="0 0 992.000000 179.000000"
 preserveAspectRatio="xMidYMid meet">

<g transform="translate(0.000000,179.000000) scale(0.100000,-0.100000)"
fill="#000000" stroke="none">
<path d="M2793 1411 c-100 -7 -123 -18 -142 -73 -7 -20 -10 -161 -8 -405 l2
-375 24 -19 c23 -19 3 -19 -1320 -22 -739 -1 391 -2 2511 -2 2120 0 3811 1
3757 3 l-97 3 20 21 c24 26 25 42 6 94 -7 22 -19 72 -26 112 -6 39 -15 72 -19
72 -10 0 -5 79 7 104 24 49 32 94 32 170 0 165 -42 244 -156 297 -40 19 -58
20 -390 16 -192 -3 -353 -5 -359 -6 -5 0 -59 2 -118 5 l-108 6 -35 -37 c-19
-21 -34 -43 -35 -49 -3 -39 -12 -70 -25 -83 -12 -13 -14 -12 -14 1 0 27 -40
122 -60 144 -18 19 -31 22 -110 22 -159 0 -170 -14 -171 -217 0 -76 -4 -147
-8 -158 -8 -19 -8 -19 -20 3 -7 13 -13 41 -14 62 -1 22 -4 40 -8 40 -3 0 -9
37 -12 81 -8 95 -37 166 -74 180 -13 5 -64 9 -113 9 -114 0 -130 -14 -146
-120 -8 -59 -8 -58 -16 -80 -3 -8 -11 -35 -18 -59 -13 -49 -30 -41 -30 15 0
92 -90 212 -175 233 -79 20 -134 14 -202 -21 -35 -18 -63 -36 -63 -41 0 -6
-11 -20 -24 -32 -43 -39 -49 -83 -55 -365 -5 -208 -3 -268 7 -280 7 -8 27 -35
45 -59 18 -24 48 -52 67 -62 l35 -19 -103 0 c-91 0 -102 2 -89 15 20 19 31 86
21 127 -4 18 -7 36 -6 40 1 4 -10 16 -25 27 -18 15 -40 21 -77 21 -91 0 -88
-10 -87 277 2 277 -5 331 -48 364 -23 19 -34 21 -106 14 -44 -3 -87 -6 -95 -5
-104 9 -365 9 -408 -1 -41 -10 -57 -10 -75 0 -24 13 -140 10 -218 -4 -23 -4
-39 -3 -43 4 -4 6 -35 11 -70 11 -53 0 -68 -4 -102 -30 -27 -20 -47 -27 -62
-23 -12 3 -22 9 -22 13 0 14 -92 40 -140 40 -51 0 -111 -17 -122 -34 -4 -6 -8
-7 -8 -3 0 4 -6 3 -14 -4 -51 -42 -76 -68 -76 -78 0 -20 -14 -12 -67 41 -44
43 -63 54 -120 70 -37 9 -72 17 -78 16 -5 -1 -51 -4 -102 -7z m200 -57 c56
-19 101 -67 119 -126 7 -24 13 -86 13 -138 0 -88 -2 -99 -31 -150 l-31 -54 41
-159 c31 -120 38 -162 30 -175 -9 -13 -29 -18 -88 -20 -87 -3 -83 -7 -112 103
-28 107 -42 150 -43 135 -1 -13 -2 -13 -11 0 -7 10 -10 -21 -10 -97 0 -135 -5
-143 -90 -143 -99 0 -90 -42 -90 419 0 224 3 411 7 414 14 15 249 7 296 -9z
m475 0 c49 -20 90 -60 113 -109 16 -36 19 -68 19 -291 l0 -250 -27 -55 c-19
-35 -43 -64 -71 -84 -40 -27 -51 -30 -122 -30 -72 0 -82 3 -122 31 -26 19 -54
53 -70 84 l-28 52 0 242 c0 132 4 257 10 276 13 49 61 104 112 129 52 25 132
28 186 5z m321 2 c7 -8 16 -27 20 -42 11 -42 27 -39 42 8 l14 43 85 0 85 0 9
-42 c6 -24 15 -43 22 -43 7 0 19 19 27 43 l14 42 84 0 84 0 3 -44 c2 -25 -3
-74 -12 -110 -8 -36 -19 -97 -25 -136 -63 -429 -78 -515 -92 -531 -12 -15
-125 -20 -145 -6 -5 4 -16 33 -23 64 -15 71 -34 75 -50 10 -20 -76 -21 -77
-99 -80 -87 -4 -84 -7 -106 133 -19 121 -68 404 -81 470 -19 98 -29 200 -21
220 8 21 148 22 165 1z m700 5 c12 -8 14 -76 12 -407 -1 -268 -5 -402 -13
-411 -14 -17 -139 -18 -156 -1 -17 17 -17 799 0 816 14 14 136 16 157 3z m225
-7 c3 -9 6 -157 6 -330 l0 -314 95 0 c110 0 115 -4 115 -94 0 -85 -2 -86 -199
-86 -116 0 -171 4 -179 12 -17 17 -17 799 0 816 7 7 41 12 84 12 56 0 73 -3
78 -16z m614 1 c85 -36 124 -104 125 -215 0 -41 0 -84 0 -95 0 -11 1 -99 1
-195 l1 -176 -35 -49 c-51 -70 -107 -98 -191 -93 -82 4 -135 36 -176 105 l-28
48 -3 242 c-4 262 1 296 47 360 53 74 170 104 259 68z m500 -2 c5 -10 12 -38
16 -63 4 -25 12 -70 16 -100 12 -71 85 -486 102 -569 11 -59 11 -64 -7 -77
-25 -19 -148 -19 -164 -1 -6 8 -16 48 -23 90 -11 75 -12 77 -39 77 -35 0 -39
-7 -55 -93 -8 -39 -19 -74 -26 -79 -7 -4 -43 -8 -79 -8 -102 0 -101 -3 -59
225 5 28 30 171 55 320 25 148 51 275 57 282 7 9 40 13 104 13 79 0 95 -3 102
-17z m402 -5 c5 -13 19 -70 30 -128 44 -223 60 -225 100 -8 31 169 21 158 139
158 87 0 102 -2 110 -18 6 -12 10 -169 11 -399 1 -451 7 -426 -105 -421 -61 3
-71 6 -80 25 -13 32 -33 36 -41 10 -10 -31 -22 -37 -81 -37 -57 0 -78 13 -88
58 -7 33 -35 39 -35 8 0 -12 -7 -32 -16 -44 -13 -19 -24 -22 -75 -22 -108 0
-99 -37 -99 418 0 296 3 401 12 410 8 8 47 12 110 12 93 0 99 -1 108 -22z
m818 10 c9 -9 15 -9 24 0 18 18 232 16 293 -2 104 -32 139 -105 133 -274 -3
-94 -6 -113 -29 -152 l-27 -45 34 -130 c60 -226 60 -225 -41 -225 -35 0 -70 3
-79 6 -14 5 -27 41 -67 187 -18 67 -34 39 -39 -72 -4 -75 -9 -104 -20 -112 -8
-5 -46 -7 -85 -5 -38 3 -77 5 -85 5 -270 -10 -377 -9 -395 5 -19 14 -20 26
-20 404 1 310 4 393 14 406 11 14 40 16 195 16 128 0 186 -4 194 -12z"/>
<path d="M2727 1293 c-9 -51 -7 -661 2 -693 7 -27 35 -36 77 -26 24 6 24 7 24
146 0 138 0 140 23 142 28 2 60 -1 65 -6 3 -4 72 -271 72 -282 0 -2 23 -4 50
-4 48 0 50 1 50 27 0 14 -16 88 -36 163 l-36 137 26 38 c36 52 39 69 34 193
-3 115 -10 132 -63 174 -27 21 -42 23 -156 26 l-126 4 -6 -39z m228 -88 c22
-22 25 -32 25 -105 0 -73 -3 -83 -25 -105 -19 -20 -34 -25 -75 -25 l-50 0 0
123 c0 68 3 127 7 130 3 4 26 7 50 7 33 0 50 -6 68 -25z"/>
<path d="M2870 1095 c0 -82 1 -85 23 -85 38 0 47 19 47 97 l0 73 -35 0 -35 0
0 -85z"/>
<path d="M3325 1327 c-54 -22 -84 -48 -105 -91 -18 -39 -20 -61 -20 -284 0
-254 3 -278 48 -328 63 -73 189 -75 262 -5 47 44 50 67 50 331 0 232 -2 254
-20 290 -38 74 -143 117 -215 87z m104 -123 c20 -25 21 -39 21 -251 0 -134 -4
-232 -10 -243 -27 -50 -100 -49 -125 0 -22 42 -22 438 0 480 25 48 82 55 114
14z"/>
<path d="M3358 1179 c-16 -9 -18 -31 -18 -223 0 -169 3 -216 14 -232 12 -15
18 -17 33 -8 16 10 18 31 21 229 3 242 -2 263 -50 234z"/>
<path d="M3717 958 c34 -204 66 -375 71 -380 5 -5 29 -8 53 -6 l44 3 22 150
c13 83 26 171 29 198 4 26 10 47 14 47 8 0 30 -114 55 -284 8 -55 19 -104 23
-108 5 -5 29 -8 53 -6 l44 3 37 230 c39 248 63 402 74 478 l6 47 -51 0 c-32 0
-53 -5 -56 -12 -3 -7 -12 -67 -20 -133 -21 -166 -36 -247 -44 -240 -3 4 -20
90 -36 193 l-30 187 -49 3 c-27 2 -52 0 -57 -5 -4 -4 -13 -42 -19 -83 -33
-236 -45 -299 -52 -292 -4 4 -19 82 -33 172 -36 232 -26 210 -88 210 l-53 0
63 -372z"/>
<path d="M4362 953 l3 -378 48 -3 47 -3 0 380 0 381 -50 0 -50 0 2 -377z"/>
<path d="M4582 953 l3 -378 147 -3 c142 -2 147 -2 153 19 4 11 4 36 0 55 l-6
34 -94 0 c-52 0 -95 3 -95 8 0 4 -1 149 -3 322 l-2 315 -53 3 -52 3 2 -378z"/>
<path d="M5185 1328 c-51 -19 -82 -46 -104 -91 -20 -40 -21 -60 -21 -288 0
-217 2 -249 19 -286 20 -42 76 -84 134 -97 37 -9 103 10 143 40 56 43 64 74
64 243 l0 152 -82 -3 -83 -3 -3 -47 c-3 -44 -2 -47 25 -50 28 -3 28 -3 31 -85
2 -47 -2 -92 -8 -103 -16 -30 -57 -43 -92 -29 -44 18 -50 57 -46 297 3 211 3
214 27 233 52 42 121 7 121 -63 0 -61 7 -68 61 -68 l49 0 0 63 c0 76 -21 121
-76 159 -45 32 -114 43 -159 26z"/>
<path d="M5210 1171 c-11 -22 -13 -55 -4 -100 6 -27 11 -31 38 -31 l31 0 -3
62 c-2 35 -9 69 -14 76 -15 18 -36 15 -48 -7z"/>
<path d="M5205 820 c-13 -75 14 -130 50 -100 10 9 15 32 15 76 0 64 0 64 -29
64 -26 0 -30 -4 -36 -40z"/>
<path d="M5641 1283 c-6 -27 -15 -75 -20 -108 -6 -33 -17 -98 -25 -145 -48
-270 -75 -443 -70 -451 9 -14 94 -11 100 4 2 7 10 47 17 88 l13 74 62 3 c71 3
67 8 85 -99 l13 -74 52 -3 c48 -3 52 -2 52 20 0 22 -38 259 -94 588 -14 80
-25 146 -26 148 0 1 -33 2 -74 2 l-74 0 -11 -47z m108 -253 c6 -36 14 -88 17
-116 6 -49 5 -52 -19 -58 -36 -9 -76 8 -72 31 3 10 12 70 20 132 23 164 27
165 54 11z"/>
<path d="M6045 1317 c-3 -6 -4 -176 -3 -377 l3 -365 48 -3 c26 -2 48 -2 49 0
1 2 4 107 7 233 l6 230 17 -55 c9 -30 35 -135 58 -233 l42 -178 41 3 42 3 28
135 c50 245 70 321 78 313 5 -5 10 -107 11 -228 l3 -220 48 -3 47 -3 0 380 0
381 -73 0 -73 0 -12 -57 c-6 -32 -24 -132 -41 -223 -35 -188 -50 -250 -61
-250 -4 0 -22 75 -40 168 -17 92 -41 211 -52 265 l-21 97 -74 0 c-50 0 -75 -4
-78 -13z"/>
<path d="M6696 1308 c-8 -30 -8 -686 0 -716 6 -22 8 -22 158 -20 l151 3 0 50
0 50 -102 3 -103 3 0 109 0 110 58 1 c31 1 64 2 72 3 11 1 16 16 18 54 l3 52
-76 0 -76 0 3 108 3 107 103 3 102 3 0 49 0 50 -154 0 c-151 0 -154 0 -160
-22z"/>
<path d="M7106 1290 c-9 -57 -7 -650 3 -686 6 -25 13 -29 46 -32 24 -2 41 2
46 10 5 7 9 72 9 144 0 121 2 132 19 137 37 9 71 -4 77 -32 4 -14 19 -77 35
-139 16 -62 29 -115 29 -118 0 -2 23 -4 50 -4 47 0 50 1 50 26 0 15 -16 88
-36 164 l-36 138 29 43 c26 39 28 52 31 151 3 94 1 114 -18 152 -34 71 -55 80
-201 84 l-126 4 -7 -42z m229 -85 c22 -22 25 -32 25 -105 0 -73 -3 -83 -25
-105 -19 -20 -34 -25 -75 -25 l-50 0 0 123 c0 68 3 127 7 130 3 4 26 7 50 7
33 0 50 -6 68 -25z"/>
<path d="M7250 1096 c0 -83 1 -86 23 -86 42 0 48 12 45 91 l-3 74 -32 3 -33 3
0 -85z"/>
<path d="M6847 1183 c-4 -3 -7 -37 -7 -74 l0 -68 73 -3 72 -3 3 -75 c4 -90 -5
-100 -90 -100 l-58 0 0 -75 0 -75 110 0 110 0 0 240 0 240 -103 0 c-57 0 -107
-3 -110 -7z"/>
<path d="M7877 852 c-29 -18 -42 -48 -34 -79 3 -11 5 -5 6 13 1 38 29 65 79
74 34 7 35 8 7 9 -16 0 -43 -7 -58 -17z"/>
<path d="M8505 858 c-31 -18 -44 -40 -43 -73 l1 -30 4 31 c5 40 32 65 81 74
34 7 35 8 7 9 -16 0 -39 -5 -50 -11z"/>
<path d="M7993 837 c12 -13 24 -22 26 -20 6 4 -30 43 -40 43 -5 0 2 -10 14
-23z"/>
<path d="M8621 833 c7 -12 15 -20 18 -17 3 2 -3 12 -13 22 -17 16 -18 16 -5
-5z"/>
<path d="M8021 774 c0 -11 3 -14 6 -6 3 7 2 16 -1 19 -3 4 -6 -2 -5 -13z"/>
<path d="M8640 767 c0 -2 15 -16 33 -33 l32 -29 -29 33 c-28 30 -36 37 -36 29z"/>
<path d="M8218 753 c12 -2 32 -2 45 0 12 2 2 4 -23 4 -25 0 -35 -2 -22 -4z"/>
<path d="M7809 733 c-13 -16 -12 -17 4 -4 16 13 21 21 13 21 -2 0 -10 -8 -17
-17z"/>
<path d="M7780 689 c-7 -11 -10 -23 -7 -25 2 -2 9 7 15 21 14 30 7 33 -8 4z"/>
<path d="M7755 605 c-3 -26 -4 -49 -2 -51 3 -3 8 16 12 41 3 26 4 49 2 51 -3
3 -8 -16 -12 -41z"/>
<path d="M8741 514 c0 -11 3 -14 6 -6 3 7 2 16 -1 19 -3 4 -6 -2 -5 -13z"/>
<path d="M7735 465 c-4 -31 -5 -58 -3 -61 3 -2 8 21 12 52 4 31 5 59 2 61 -2
3 -8 -21 -11 -52z"/>
<path d="M8794 506 c-3 -8 -4 -29 -2 -48 l3 -33 560 0 560 0 -557 2 -558 3 0
40 0 40 563 3 562 2 -563 3 c-476 2 -563 0 -568 -12z"/>
<path d="M7700 447 c0 -16 -266 -17 -3852 -20 l-3853 -2 3853 -3 c3465 -2
3853 0 3859 13 3 9 3 19 -1 22 -3 4 -6 -1 -6 -10z"/>
<path d="M8762 375 c0 -16 2 -22 5 -12 2 9 2 23 0 30 -3 6 -5 -1 -5 -18z"/>
<path d="M8163 363 c-12 -13 -19 -23 -14 -23 10 0 46 39 40 43 -2 2 -14 -7
-26 -20z"/>
<path d="M8300 381 c0 -10 39 -46 43 -40 2 2 -7 14 -20 26 -13 12 -23 19 -23
14z"/>
<path d="M7990 358 c-10 -20 -10 -21 3 -6 13 16 15 16 32 0 19 -17 19 -17 1 6
-11 12 -20 22 -22 22 -2 0 -8 -10 -14 -22z"/>
<path d="M7722 350 c0 -14 2 -19 5 -12 2 6 2 18 0 25 -3 6 -5 1 -5 -13z"/>
<path d="M7961 303 c-10 -26 -10 -27 4 -9 8 11 15 23 15 28 0 15 -7 8 -19 -19z"/>
<path d="M7712 295 c0 -16 2 -22 5 -12 2 9 2 23 0 30 -3 6 -5 -1 -5 -18z"/>
<path d="M8772 290 c0 -14 2 -19 5 -12 2 6 2 18 0 25 -3 6 -5 1 -5 -13z"/>
<path d="M7936 253 c-6 -14 -5 -15 5 -6 7 7 10 15 7 18 -3 3 -9 -2 -12 -12z"/>
<path d="M7720 253 c0 -5 10 -18 23 -29 l22 -19 -20 25 c-11 14 -21 27 -22 29
-2 2 -3 0 -3 -6z"/>
<path d="M8557 235 c12 -22 52 -61 56 -54 1 2 -13 20 -32 39 -19 19 -29 26
-24 15z"/>
<path d="M7897 205 c-15 -14 -24 -25 -19 -25 5 0 19 11 32 25 30 32 23 32 -13
0z"/>
<path d="M7823 173 c9 -2 23 -2 30 0 6 3 -1 5 -18 5 -16 0 -22 -2 -12 -5z"/>
<path d="M8638 173 c6 -2 18 -2 25 0 6 3 1 5 -13 5 -14 0 -19 -2 -12 -5z"/>
</g>
</svg>
