<?xml version="1.0" standalone="no"?>
<!DOCTYPE svg PUBLIC "-//W3C//DTD SVG 20010904//EN"
 "http://www.w3.org/TR/2001/REC-SVG-20010904/DTD/svg10.dtd">
<svg version="1.0" xmlns="http://www.w3.org/2000/svg"
 width="32.000000pt" height="32.000000pt" viewBox="0 0 32.000000 32.000000"
 preserveAspectRatio="xMidYMid meet">

<g transform="translate(0.000000,32.000000) scale(0.100000,-0.100000)"
fill="#000000" stroke="none">
<path d="M30 230 c0 -17 7 -20 45 -20 38 0 45 -3 45 -20 0 -16 -7 -20 -30 -20
-20 0 -30 5 -30 15 0 9 -6 12 -15 9 -21 -9 -21 -114 0 -114 9 0 15 9 15 25 0
33 25 33 46 0 20 -31 61 -36 44 -5 -7 14 -8 26 0 39 14 27 13 84 -2 99 -7 7
-36 12 -65 12 -46 0 -53 -3 -53 -20z"/>
<path d="M187 243 c-4 -3 -7 -12 -7 -20 0 -9 17 -13 61 -13 52 0 60 2 55 16
-3 9 -6 18 -6 20 0 7 -96 4 -103 -3z"/>
<path d="M182 138 l3 -53 63 -3 62 -3 0 51 0 50 -35 0 c-33 0 -35 -2 -25 -20
6 -11 15 -20 20 -20 6 0 10 -4 10 -10 0 -5 -13 -10 -30 -10 -28 0 -30 3 -30
35 0 29 -4 35 -21 35 -18 0 -20 -5 -17 -52z"/>
</g>
</svg>
