<?xml version="1.0" standalone="no"?>
<!DOCTYPE svg PUBLIC "-//W3C//DTD SVG 20010904//EN"
 "http://www.w3.org/TR/2001/REC-SVG-20010904/DTD/svg10.dtd">
<svg version="1.0" xmlns="http://www.w3.org/2000/svg"
 width="900.000000pt" height="900.000000pt" viewBox="0 0 900.000000 900.000000"
 preserveAspectRatio="xMidYMid meet">

<g transform="translate(0.000000,900.000000) scale(0.100000,-0.100000)"
fill="#000000" stroke="none">
<path d="M2513 6113 l-503 -3 0 -325 0 -325 848 0 848 0 27 -28 27 -28 0 -354
0 -354 -27 -28 -27 -28 -506 0 -506 0 -27 28 -27 28 0 222 0 222 -315 0 -315
0 2 -1067 3 -1068 313 -3 312 -2 0 474 0 474 33 28 32 29 222 -5 222 -5 36
-34 c30 -28 71 -83 120 -163 5 -9 29 -44 53 -78 23 -34 42 -66 42 -70 0 -4 24
-42 53 -85 85 -126 106 -159 116 -182 6 -12 37 -62 70 -111 34 -50 61 -93 61
-97 0 -4 25 -45 57 -91 l56 -84 364 0 c284 0 363 3 363 13 0 6 -14 30 -30 51
-17 22 -30 44 -30 49 0 5 -27 50 -60 99 -33 49 -60 91 -60 95 0 3 -29 49 -65
103 -36 54 -65 100 -65 104 0 3 -26 45 -57 94 -74 111 -82 124 -90 142 -3 8
-19 30 -35 48 -24 28 -28 41 -28 90 0 51 4 62 29 86 17 17 42 29 64 31 20 1
50 10 68 19 18 9 36 16 41 16 24 0 85 63 111 115 68 136 62 53 65 869 2 735 2
739 -19 800 -25 71 -83 160 -131 202 -18 16 -60 42 -92 58 l-59 29 -541 1
c-298 1 -767 1 -1043 -1z"/>
<path d="M5220 6114 c-8 -3 -44 -19 -79 -37 -78 -39 -139 -105 -171 -184 -22
-52 -24 -76 -28 -245 l-4 -188 1156 0 c1096 0 1155 1 1149 18 -10 26 -86 132
-95 132 -4 0 -8 9 -8 21 0 11 -4 17 -10 14 -5 -3 -10 1 -10 9 0 16 -54 101
-71 111 -5 4 -9 13 -9 22 0 9 -15 34 -33 57 -19 23 -45 62 -60 88 -33 59 -108
171 -122 180 -11 8 -1580 10 -1605 2z"/>
<path d="M4841 5654 c0 -11 3 -14 6 -6 3 7 2 16 -1 19 -3 4 -6 -2 -5 -13z"/>
<path d="M4853 5450 c0 -36 2 -50 4 -32 2 17 2 47 0 65 -2 17 -4 3 -4 -33z"/>
<path d="M1956 5371 c5 -5 45 -9 89 -9 44 0 428 2 853 4 l772 4 -2 -315 -3
-316 -420 -3 c-231 -2 -429 0 -441 5 -19 7 -21 16 -22 101 -1 51 -4 146 -7
211 -3 64 -5 121 -5 126 0 5 -11 16 -25 25 l-24 16 5 -242 c2 -133 7 -244 10
-247 3 -3 217 -7 475 -9 l469 -3 0 331 0 330 -867 0 c-531 0 -863 -4 -857 -9z"/>
<path d="M5128 5253 c7 -3 16 -2 19 1 4 3 -2 6 -13 5 -11 0 -14 -3 -6 -6z"/>
<path d="M5183 5253 c9 -2 25 -2 35 0 9 3 1 5 -18 5 -19 0 -27 -2 -17 -5z"/>
<path d="M2192 5223 c37 -2 100 -2 140 0 40 1 10 3 -67 3 -77 0 -110 -1 -73
-3z"/>
<path d="M2598 5223 c12 -2 32 -2 45 0 12 2 2 4 -23 4 -25 0 -35 -2 -22 -4z"/>
<path d="M2678 5223 c7 -3 16 -2 19 1 4 3 -2 6 -13 5 -11 0 -14 -3 -6 -6z"/>
<path d="M5620 5221 l35 -6 5 -730 5 -730 437 -5 c283 -3 434 -2 427 5 -6 6
-176 11 -428 13 l-419 4 -5 252 c-3 138 -3 458 -2 711 2 279 0 466 -6 477 -7
13 -20 18 -47 17 l-37 -2 35 -6z"/>
<path d="M4851 5144 c0 -11 3 -14 6 -6 3 7 2 16 -1 19 -3 4 -6 -2 -5 -13z"/>
<path d="M4944 5116 c-10 -25 4 -1819 14 -1852 41 -131 111 -205 229 -243 l70
-22 904 3 904 4 56 22 c80 32 133 81 171 160 l33 67 5 525 c5 533 -2 1086 -15
1098 -8 8 -1312 9 -1320 1 -3 -3 49 -89 116 -190 66 -101 160 -243 207 -316
l87 -131 117 -4 c114 -3 118 -4 147 -32 l31 -30 0 -223 0 -222 -31 -36 -31
-35 -497 0 -497 0 -32 33 -32 33 -3 699 -3 700 -312 3 c-261 2 -313 0 -318
-12z"/>
<path d="M5805 4969 c-4 -6 -5 -12 -2 -15 2 -3 7 2 10 11 7 17 1 20 -8 4z"/>
<path d="M6723 4973 c9 -2 25 -2 35 0 9 3 1 5 -18 5 -19 0 -27 -2 -17 -5z"/>
<path d="M5855 4890 c-4 -6 5 -26 19 -45 14 -18 26 -37 26 -41 0 -4 9 -17 19
-28 11 -12 33 -47 50 -78 17 -31 42 -68 56 -84 14 -15 25 -32 25 -38 0 -6 14
-29 30 -50 17 -22 30 -46 30 -53 0 -7 3 -13 8 -13 4 0 16 -17 27 -37 11 -21
32 -54 47 -73 16 -19 28 -40 28 -47 0 -7 7 -13 15 -13 8 0 12 -6 9 -14 -3 -7
2 -16 10 -19 9 -4 16 -17 16 -29 0 -16 14 -33 48 -55 46 -32 51 -33 137 -31
l90 2 -95 5 -95 6 -80 120 c-77 115 -227 344 -343 525 -68 104 -68 104 -77 90z"/>
<path d="M4482 4630 c0 -19 2 -27 5 -17 2 9 2 25 0 35 -3 9 -5 1 -5 -18z"/>
<path d="M4483 4490 c0 -41 2 -58 4 -37 2 20 2 54 0 75 -2 20 -4 3 -4 -38z"/>
<path d="M4483 4340 c0 -25 2 -35 4 -22 2 12 2 32 0 45 -2 12 -4 2 -4 -23z"/>
<path d="M4471 4247 c0 -10 -17 -51 -37 -92 -43 -88 -126 -173 -206 -210 -29
-14 -47 -25 -40 -25 26 0 108 50 153 93 77 74 146 193 136 233 -4 18 -5 18 -6
1z"/>
<path d="M6596 4139 c7 -8 14 -23 17 -34 4 -13 5 -9 4 9 -1 16 -9 32 -17 34
-12 4 -13 2 -4 -9z"/>
<path d="M4118 3913 c-16 -2 -28 -8 -28 -11 0 -4 46 -78 103 -164 56 -86 107
-164 114 -175 11 -17 12 -17 12 4 1 13 -17 46 -39 75 -22 29 -40 58 -40 65 0
6 -3 13 -7 15 -5 2 -33 39 -62 83 -30 44 -60 82 -65 84 -6 2 7 10 29 17 40 12
34 15 -17 7z"/>
<path d="M3170 3831 c5 -11 15 -23 21 -27 6 -3 3 5 -6 20 -20 30 -30 35 -15 7z"/>
<path d="M3210 3770 c6 -11 13 -20 16 -20 2 0 0 9 -6 20 -6 11 -13 20 -16 20
-2 0 0 -9 6 -20z"/>
<path d="M3310 3610 c6 -11 13 -20 16 -20 2 0 0 9 -6 20 -6 11 -13 20 -16 20
-2 0 0 -9 6 -20z"/>
<path d="M4330 3516 c0 -2 8 -10 18 -17 15 -13 16 -12 3 4 -13 16 -21 21 -21
13z"/>
<path d="M3390 3476 c0 -2 8 -10 18 -17 15 -13 16 -12 3 4 -13 16 -21 21 -21
13z"/>
<path d="M3420 3438 c0 -9 132 -220 159 -253 l23 -30 -17 29 c-25 42 -157 250
-161 255 -2 2 -4 2 -4 -1z"/>
<path d="M4500 3246 c0 -2 8 -10 18 -17 15 -13 16 -12 3 4 -13 16 -21 21 -21
13z"/>
<path d="M3621 3113 c12 -21 31 -47 42 -58 10 -11 2 6 -18 38 -42 64 -59 78
-24 20z"/>
<path d="M4960 3057 c0 -2 15 -16 33 -33 l32 -29 -29 33 c-28 30 -36 37 -36
29z"/>
<path d="M5050 2975 c0 -7 61 -37 66 -33 2 3 -12 12 -31 21 -19 9 -35 15 -35
12z"/>
<path d="M5248 2913 c34 -2 90 -2 125 0 34 2 6 3 -63 3 -69 0 -97 -1 -62 -3z"/>
</g>
</svg>
